<svg xmlns="http://www.w3.org/2000/svg" width="557" height="279" viewBox="0 0 557 279" fill="none">
<g clip-path="url(#clip0_37_24)">
<path d="M85.1367 42.2803C104.858 23.805 135.06 21.8374 156.993 37.7217L158.524 38.8301L160.353 38.3516C165.582 36.9829 171.048 36.2403 176.495 36.2402H176.54L176.584 36.2393C193.29 35.8711 209.12 43.2312 219.554 56.3564L220.385 57.4033L221.68 57.7393C246.883 64.2826 264.942 86.7649 265.932 112.967L265.934 112.996C266.555 126.79 262.826 140.334 255.236 151.897L254.343 153.259L254.653 154.856C255.536 159.391 256.031 163.88 256.031 168.467V168.583L256.038 168.699C257.146 187.767 248.407 206.102 232.761 217.306L229.946 219.32L231.536 222.395L241.689 242.027V242.028C244.213 246.962 244.513 252.71 242.362 257.762L242.349 257.795L242.335 257.829C240.266 262.943 236.019 266.966 230.828 268.708L220.423 271.999L220.36 272.02L220.298 272.041C218.515 272.67 216.461 273 214.502 273C209.003 273 203.807 270.531 200.198 266.051L200.166 266.011L200.133 265.972L172.155 233.003L171.21 231.89L169.77 231.646C158.709 229.784 148.255 225.062 139.408 217.965L137.77 216.65L135.757 217.254C129.488 219.133 123.277 220.118 117.109 220.118C106.305 220.118 95.4973 216.804 86.416 210.427L84.8242 209.309L82.9629 209.87C76.3872 211.854 69.6762 212.726 62.8115 212.602L62.75 212.601L62.6885 212.602C52.8608 212.726 43.1222 210.741 33.9697 206.992C16.5079 199.16 4.92536 182.071 4.31543 162.933L4.31055 162.775L4.29297 162.618L4.20898 161.796C3.41255 153.301 4.89817 144.719 8.55664 136.936L9.28516 135.387L8.66699 133.791C5.17423 124.764 4.8163 114.943 7.7793 105.86C12.3277 94.261 20.9152 84.5767 31.6064 78.4365L32.9102 77.6885L33.3975 76.2666C40.4877 55.6219 60.3856 41.8955 82.1348 43.3525L83.8682 43.4688L85.1367 42.2803ZM211.38 227.337L202.011 229.447L195.767 230.854L199.767 235.85L212.964 252.334L214.705 254.51L217.351 253.629L221.705 252.178L226.001 250.747L224.051 246.66L215.869 229.517L214.494 226.636L211.38 227.337ZM114.512 158.897L114.509 158.824C114.154 149.256 117.687 139.829 124.353 132.995C130.518 127.579 138.508 124.805 146.747 125.244C151.64 125.734 155.26 129.876 155.078 134.688L155.076 134.764V134.839C155.076 139.437 151.034 143.261 145.833 142.978L145.724 142.972H145.615C142.657 142.972 139.749 143.904 137.381 145.876L136.999 146.193L136.706 146.596C134 150.314 132.905 154.747 132.905 158.972C132.905 164.066 128.972 168.159 123.708 168.159C121.268 168.159 118.929 167.191 117.204 165.468C115.48 163.745 114.512 161.407 114.512 158.972V158.897ZM248.063 113.378L248.059 113.281C247.638 104.597 245.437 95.858 238.862 88.9434C232.638 82.3973 223.014 78.0338 208.898 76.376C204.552 67.1454 198.674 61.076 192.02 57.5732C184.888 53.8197 177.231 53.2038 170.321 54.3379C163.441 55.4671 157.13 58.3532 152.472 61.8555C150.14 63.6082 148.126 65.589 146.66 67.6904C145.273 69.6791 144.203 72.0379 144.129 74.5596C143.99 75.9704 144.235 77.41 144.507 78.54C144.813 79.8163 145.258 81.107 145.706 82.2412C146.157 83.3821 146.644 84.442 147.071 85.2715C147.283 85.682 147.501 86.0773 147.71 86.416C147.813 86.5822 147.941 86.7792 148.088 86.9756C148.166 87.0802 148.497 87.5326 149.022 87.9268L150.089 88.7266H151.422C153.862 88.7266 156.201 89.6948 157.926 91.418C159.65 93.1412 160.618 95.4783 160.618 97.9141C160.618 102.936 156.504 107.069 151.479 107.1C145.438 106.851 139.728 104.565 135.14 100.668L132.876 98.7451L130.381 100.355C124.604 104.084 117.966 106.384 111.066 107.117C105.701 107.578 101.575 103.901 101.309 99.0146L101.299 98.8398L101.274 98.667L101.22 98.1973C100.787 93.3703 104.371 89.1568 109.29 88.71L109.356 88.7041L109.424 88.6953C110.6 88.5483 114.277 88.0197 117.76 86.2188C121.324 84.3755 125.333 80.795 125.333 74.5723C125.333 66.8923 128.244 59.4949 133.339 53.5752L137.476 48.7686L131.354 47.1064C117.71 43.4014 103.682 48.3363 90.2988 63.6895C79.2023 62.0853 70.1149 61.9718 62.8604 65.9971C55.3164 70.183 50.7241 78.2563 47.1123 90.3711C41.5453 93.172 36.7718 95.8915 33.0332 99.5586C28.7942 103.717 26.1044 108.849 24.5205 116.044L23.1982 122.05L29.2246 120.823C42.7294 118.074 56.6148 119.194 69.5146 123.945C74.1059 125.697 76.6988 130.84 74.9385 135.867C73.209 140.548 67.9449 142.979 63.123 141.259C52.5669 136.685 40.7356 136.424 29.9326 140.454L29.2822 140.696L28.752 141.144C25.586 143.813 24.2881 147.658 23.6953 151.046C23.0971 154.465 23.1074 158.117 23.1074 160.95C23.1075 172.051 28.668 182.438 38.1611 188.461L38.3213 188.562L38.4893 188.647C46.049 192.496 54.4798 194.501 62.9385 194.357L69.7324 194.242L66.335 188.358C64.4708 185.129 62.8531 181.777 61.4814 178.301C59.7568 173.321 62.4262 167.825 67.4971 166.042C72.4988 164.284 78.0279 166.958 79.8164 172.037C85.6271 188.582 100.431 199.846 117.735 201.72L118.052 201.754L118.369 201.738C137.916 200.74 155.319 189.187 163.869 171.386L164.115 170.873L164.209 170.312C164.882 166.275 166.157 163.399 167.747 161.301C169.329 159.213 171.369 157.702 173.87 156.599C179.003 154.335 185.799 153.883 193.777 153.873C199.549 154.673 203.508 158.905 203.508 163.983C203.508 166.419 202.54 168.755 200.815 170.479C199.091 172.202 196.751 173.171 194.312 173.171H183.175L182.229 175.83C178.253 187.004 171.297 196.811 162.101 204.262L156.585 208.731L163.265 211.134C166.756 212.39 170.7 213.184 173.741 214.002L174.278 214.146L174.835 214.139C209.479 213.666 226.005 202.808 233.463 190.71C237.117 184.782 238.376 178.879 238.729 174.441C238.905 172.219 238.855 170.346 238.76 168.991C238.712 168.312 238.652 167.765 238.604 167.374L238.548 166.933C237.574 146.029 220.019 129.634 199.027 130.442C196.6 130.433 194.274 129.466 192.558 127.751C190.833 126.028 189.865 123.691 189.865 121.256C189.865 118.82 190.833 116.483 192.558 114.76C194.274 113.045 196.599 112.078 199.025 112.068C214.303 112.455 228.949 118.171 240.365 128.215L245.733 132.938L246.949 125.892C247.641 121.88 248.063 117.694 248.063 113.476V113.378Z" stroke="#121018" fill="#121018"/>
<path d="M301.233 247V172.12H277.233V163H335.553V172.12H310.593V247H301.233ZM363.55 248.2C357.31 248.2 351.75 246.8 346.87 244C342.07 241.2 338.27 237.32 335.47 232.36C332.75 227.4 331.39 221.76 331.39 215.44C331.39 209.2 332.75 203.64 335.47 198.76C338.27 193.88 342.07 190.04 346.87 187.24C351.75 184.44 357.31 183.04 363.55 183.04C369.71 183.04 375.19 184.44 379.99 187.24C384.87 190.04 388.67 193.88 391.39 198.76C394.19 203.64 395.59 209.2 395.59 215.44C395.59 221.76 394.19 227.4 391.39 232.36C388.67 237.32 384.87 241.2 379.99 244C375.19 246.8 369.71 248.2 363.55 248.2ZM363.55 239.68C367.95 239.68 371.87 238.64 375.31 236.56C378.75 234.4 381.43 231.52 383.35 227.92C385.27 224.24 386.23 220.08 386.23 215.44C386.23 210.8 385.27 206.68 383.35 203.08C381.43 199.48 378.75 196.68 375.31 194.68C371.87 192.6 367.95 191.56 363.55 191.56C359.15 191.56 355.19 192.6 351.67 194.68C348.23 196.68 345.51 199.52 343.51 203.2C341.59 206.8 340.67 210.88 340.75 215.44C340.67 220.08 341.59 224.24 343.51 227.92C345.51 231.52 348.23 234.4 351.67 236.56C355.19 238.64 359.15 239.68 363.55 239.68ZM436.441 248.2C430.201 248.2 424.641 246.8 419.761 244C414.961 241.2 411.161 237.32 408.361 232.36C405.641 227.4 404.281 221.76 404.281 215.44C404.281 209.2 405.641 203.64 408.361 198.76C411.161 193.88 414.961 190.04 419.761 187.24C424.641 184.44 430.201 183.04 436.441 183.04C442.601 183.04 448.081 184.44 452.881 187.24C457.761 190.04 461.561 193.88 464.281 198.76C467.081 203.64 468.481 209.2 468.481 215.44C468.481 221.76 467.081 227.4 464.281 232.36C461.561 237.32 457.761 241.2 452.881 244C448.081 246.8 442.601 248.2 436.441 248.2ZM436.441 239.68C440.841 239.68 444.761 238.64 448.201 236.56C451.641 234.4 454.321 231.52 456.241 227.92C458.161 224.24 459.121 220.08 459.121 215.44C459.121 210.8 458.161 206.68 456.241 203.08C454.321 199.48 451.641 196.68 448.201 194.68C444.761 192.6 440.841 191.56 436.441 191.56C432.041 191.56 428.081 192.6 424.561 194.68C421.121 196.68 418.401 199.52 416.401 203.2C414.481 206.8 413.561 210.88 413.641 215.44C413.561 220.08 414.481 224.24 416.401 227.92C418.401 231.52 421.121 234.4 424.561 236.56C428.081 238.64 432.041 239.68 436.441 239.68ZM481.852 247V158.2H490.852V247H481.852ZM529.085 248.2C523.725 248.2 518.925 247.2 514.685 245.2C510.445 243.2 507.085 240.56 504.605 237.28L510.965 231.76C513.285 234.56 516.005 236.68 519.125 238.12C522.325 239.56 525.885 240.28 529.805 240.28C531.805 240.28 533.605 240.08 535.205 239.68C536.805 239.2 538.205 238.52 539.405 237.64C540.605 236.76 541.525 235.72 542.165 234.52C542.805 233.32 543.125 232 543.125 230.56C543.125 227.92 541.965 225.72 539.645 223.96C538.605 223.24 537.125 222.52 535.205 221.8C533.285 221 530.965 220.24 528.245 219.52C523.765 218.24 520.045 216.96 517.085 215.68C514.125 214.32 511.805 212.76 510.125 211C508.925 209.56 508.005 208 507.365 206.32C506.805 204.64 506.525 202.8 506.525 200.8C506.525 198.24 507.045 195.88 508.085 193.72C509.205 191.56 510.725 189.68 512.645 188.08C514.645 186.4 516.965 185.16 519.605 184.36C522.325 183.48 525.245 183.04 528.365 183.04C531.325 183.04 534.245 183.44 537.125 184.24C540.005 185.04 542.685 186.2 545.165 187.72C547.645 189.24 549.765 191.04 551.525 193.12L546.005 199.12C544.485 197.52 542.805 196.08 540.965 194.8C539.125 193.52 537.165 192.52 535.085 191.8C533.085 191.08 531.005 190.72 528.845 190.72C526.925 190.72 525.125 190.96 523.445 191.44C521.845 191.92 520.445 192.6 519.245 193.48C518.125 194.28 517.245 195.28 516.605 196.48C516.045 197.68 515.765 199 515.765 200.44C515.765 201.64 516.005 202.72 516.485 203.68C516.965 204.64 517.645 205.48 518.525 206.2C519.645 207.08 521.205 207.92 523.205 208.72C525.285 209.44 527.845 210.2 530.885 211C534.405 211.96 537.365 212.96 539.765 214C542.245 214.96 544.285 216.12 545.885 217.48C548.045 219.08 549.565 220.92 550.445 223C551.405 225.08 551.885 227.44 551.885 230.08C551.885 233.6 550.885 236.72 548.885 239.44C546.965 242.16 544.285 244.32 540.845 245.92C537.405 247.44 533.485 248.2 529.085 248.2Z" fill="#121018"/>
<path d="M363 150L330.45 102.9L288.75 45H327.6L359.4 91.5L401.85 150H363ZM288 150L328.05 92.85L356.4 104.7L325.35 150H288ZM361.8 101.25L333.6 89.85L363 45H400.35L361.8 101.25ZM437.213 150V97.65L438.263 105L395.812 45H431.813L464.213 91.5L443.963 91.05L473.213 45H508.313L467.663 106.65L469.913 96.45V150H437.213Z" fill="#121018"/>
</g>
<defs>
<clipPath id="clip0_37_24">
<rect width="557" height="279" fill="white"/>
</clipPath>
</defs>
</svg>
