<svg xmlns="http://www.w3.org/2000/svg" width="270" height="254" viewBox="0 0 270 254" fill="none">
<path d="M85.1367 19.2803C104.858 0.804989 135.06 -1.16263 156.993 14.7217L158.524 15.8301L160.353 15.3516C165.582 13.9829 171.048 13.2403 176.495 13.2402H176.54L176.584 13.2393C193.29 12.8711 209.12 20.2312 219.554 33.3564L220.385 34.4033L221.68 34.7393C246.883 41.2826 264.942 63.7649 265.932 89.9668L265.934 89.9961C266.555 103.79 262.826 117.334 255.236 128.897L254.343 130.259L254.653 131.856C255.536 136.391 256.031 140.88 256.031 145.467V145.583L256.038 145.699C257.146 164.767 248.407 183.102 232.761 194.306L229.946 196.32L231.536 199.395L241.689 219.027V219.028C244.213 223.962 244.513 229.71 242.362 234.762L242.349 234.795L242.335 234.829C240.266 239.943 236.019 243.966 230.828 245.708L220.423 248.999L220.36 249.02L220.298 249.041C218.515 249.67 216.461 250 214.502 250C209.003 250 203.807 247.531 200.198 243.051L200.166 243.011L200.133 242.972L172.155 210.003L171.21 208.89L169.77 208.646C158.709 206.784 148.255 202.062 139.408 194.965L137.77 193.65L135.757 194.254C129.488 196.133 123.277 197.118 117.109 197.118C106.305 197.118 95.4973 193.804 86.416 187.427L84.8242 186.309L82.9629 186.87C76.3872 188.854 69.6762 189.726 62.8115 189.602L62.75 189.601L62.6885 189.602C52.8608 189.726 43.1222 187.741 33.9697 183.992C16.5079 176.16 4.92536 159.071 4.31543 139.933L4.31055 139.775L4.29297 139.618L4.20898 138.796C3.41255 130.301 4.89817 121.719 8.55664 113.936L9.28516 112.387L8.66699 110.791C5.17423 101.764 4.8163 91.9426 7.7793 82.8604C12.3277 71.261 20.9152 61.5767 31.6064 55.4365L32.9102 54.6885L33.3975 53.2666C40.4877 32.6219 60.3856 18.8955 82.1348 20.3525L83.8682 20.4688L85.1367 19.2803ZM211.38 204.337L202.011 206.447L195.767 207.854L199.767 212.85L212.964 229.334L214.705 231.51L217.351 230.629L221.705 229.178L226.001 227.747L224.051 223.66L215.869 206.517L214.494 203.636L211.38 204.337ZM114.512 135.897L114.509 135.824C114.154 126.256 117.687 116.829 124.353 109.995C130.518 104.579 138.508 101.805 146.747 102.244C151.64 102.734 155.26 106.876 155.078 111.688L155.076 111.764V111.839C155.076 116.437 151.034 120.261 145.833 119.978L145.724 119.972H145.615C142.657 119.972 139.749 120.904 137.381 122.876L136.999 123.193L136.706 123.596C134 127.314 132.905 131.747 132.905 135.972C132.905 141.066 128.972 145.159 123.708 145.159C121.268 145.159 118.929 144.191 117.204 142.468C115.48 140.745 114.512 138.407 114.512 135.972V135.897ZM248.063 90.3779L248.059 90.2812C247.638 81.5973 245.437 72.858 238.862 65.9434C232.638 59.3973 223.014 55.0338 208.898 53.376C204.552 44.1454 198.674 38.076 192.02 34.5732C184.888 30.8197 177.231 30.2038 170.321 31.3379C163.441 32.4671 157.13 35.3532 152.472 38.8555C150.14 40.6082 148.126 42.589 146.66 44.6904C145.273 46.6791 144.203 49.0379 144.129 51.5596C143.99 52.9704 144.235 54.41 144.507 55.54C144.813 56.8163 145.258 58.107 145.706 59.2412C146.157 60.3821 146.644 61.442 147.071 62.2715C147.283 62.682 147.501 63.0773 147.71 63.416C147.813 63.5822 147.941 63.7792 148.088 63.9756C148.166 64.0802 148.497 64.5326 149.022 64.9268L150.089 65.7266H151.422C153.862 65.7266 156.201 66.6948 157.926 68.418C159.65 70.1412 160.618 72.4783 160.618 74.9141C160.618 79.9363 156.504 84.0686 151.479 84.0996C145.438 83.8506 139.728 81.5654 135.14 77.668L132.876 75.7451L130.381 77.3555C124.604 81.084 117.966 83.3837 111.066 84.1172C105.701 84.5779 101.575 80.9005 101.309 76.0146L101.299 75.8398L101.274 75.667L101.22 75.1973C100.787 70.3703 104.371 66.1568 109.29 65.71L109.356 65.7041L109.424 65.6953C110.6 65.5483 114.277 65.0197 117.76 63.2188C121.324 61.3755 125.333 57.795 125.333 51.5723C125.333 43.8923 128.244 36.4949 133.339 30.5752L137.476 25.7686L131.354 24.1064C117.71 20.4014 103.682 25.3363 90.2988 40.6895C79.2023 39.0853 70.1149 38.9718 62.8604 42.9971C55.3164 47.183 50.7241 55.2563 47.1123 67.3711C41.5453 70.172 36.7718 72.8915 33.0332 76.5586C28.7942 80.7165 26.1044 85.8494 24.5205 93.0439L23.1982 99.0498L29.2246 97.8232C42.7294 95.0742 56.6148 96.1942 69.5146 100.945C74.1059 102.697 76.6988 107.84 74.9385 112.867C73.209 117.548 67.9449 119.979 63.123 118.259C52.5669 113.685 40.7356 113.424 29.9326 117.454L29.2822 117.696L28.752 118.144C25.586 120.813 24.2881 124.658 23.6953 128.046C23.0971 131.465 23.1074 135.117 23.1074 137.95C23.1075 149.051 28.668 159.438 38.1611 165.461L38.3213 165.562L38.4893 165.647C46.049 169.496 54.4798 171.501 62.9385 171.357L69.7324 171.242L66.335 165.358C64.4708 162.129 62.8531 158.777 61.4814 155.301C59.7568 150.321 62.4262 144.825 67.4971 143.042C72.4988 141.284 78.0279 143.958 79.8164 149.037C85.6271 165.582 100.431 176.846 117.735 178.72L118.052 178.754L118.369 178.738C137.916 177.74 155.319 166.187 163.869 148.386L164.115 147.873L164.209 147.312C164.882 143.275 166.157 140.399 167.747 138.301C169.329 136.213 171.369 134.702 173.87 133.599C179.003 131.335 185.799 130.883 193.777 130.873C199.549 131.673 203.508 135.905 203.508 140.983C203.508 143.419 202.54 145.755 200.815 147.479C199.091 149.202 196.751 150.171 194.312 150.171H183.175L182.229 152.83C178.253 164.004 171.297 173.811 162.101 181.262L156.585 185.731L163.265 188.134C166.756 189.39 170.7 190.184 173.741 191.002L174.278 191.146L174.835 191.139C209.479 190.666 226.005 179.808 233.463 167.71C237.117 161.782 238.376 155.879 238.729 151.441C238.905 149.219 238.855 147.346 238.76 145.991C238.712 145.312 238.652 144.765 238.604 144.374L238.548 143.933C237.574 123.029 220.019 106.634 199.027 107.442C196.6 107.433 194.274 106.466 192.558 104.751C190.833 103.028 189.865 100.691 189.865 98.2559C189.865 95.8201 190.833 93.483 192.558 91.7598C194.274 90.0451 196.599 89.078 199.025 89.0684C214.303 89.4549 228.949 95.171 240.365 105.215L245.733 109.938L246.949 102.892C247.641 98.8803 248.063 94.6945 248.063 90.4756V90.3779Z" stroke="#121018" stroke-width="8"/>
</svg>